<?xml version="1.0" encoding="UTF-8"?>
<svg version="1.1" xmlns="http://www.w3.org/2000/svg" width="1000" height="400">
<path d="M0 0 C330 0 660 0 1000 0 C1000 132 1000 264 1000 400 C670 400 340 400 0 400 C0 268 0 136 0 0 Z " fill="#635BFE" transform="translate(0,0)"/>
<path d="M0 0 C11.50808143 8.66794595 17.86388157 22.08910991 20.2421875 36.07421875 C22.33507287 53.6434407 21.18907396 74.02944778 10.36328125 88.7265625 C9.81027344 89.41492188 9.25726562 90.10328125 8.6875 90.8125 C8.28917969 91.39773437 7.89085937 91.98296875 7.48046875 92.5859375 C3.99807495 97.43421721 -1.17296495 100.03798677 -6.3125 102.8125 C-6.95058594 103.17859375 -7.58867188 103.5446875 -8.24609375 103.921875 C-16.5923429 107.51912416 -27.80956926 106.86722671 -36.21484375 103.859375 C-39.06067169 102.43911078 -41.6661239 100.57675073 -44.3125 98.8125 C-44.3125 110.3625 -44.3125 121.9125 -44.3125 133.8125 C-48.499375 134.6375 -52.68625 135.4625 -57 136.3125 C-58.31186279 136.57353516 -59.62372559 136.83457031 -60.9753418 137.10351562 C-62.54022339 137.40805664 -62.54022339 137.40805664 -64.13671875 137.71875 C-65.19979248 137.92822266 -66.26286621 138.13769531 -67.3581543 138.35351562 C-70.3125 138.8125 -70.3125 138.8125 -75.3125 138.8125 C-75.3125 91.2925 -75.3125 43.7725 -75.3125 -5.1875 C-66.4025 -5.1875 -57.4925 -5.1875 -48.3125 -5.1875 C-47.3125 -4.1875 -47.3125 -4.1875 -47.25 -0.625 C-47.270625 0.509375 -47.29125 1.64375 -47.3125 2.8125 C-46.6525 2.8125 -45.9925 2.8125 -45.3125 2.8125 C-45.3125 2.1525 -45.3125 1.4925 -45.3125 0.8125 C-30.90913072 -9.85236901 -14.91752207 -9.71899165 0 0 Z " fill="#FDFDFE" transform="translate(606.3125,153.1875)"/>
<path d="M0 0 C0.86367188 -0.00773438 1.72734375 -0.01546875 2.6171875 -0.0234375 C13.67391138 0.01016956 22.92433251 3.66876251 31.05078125 11.140625 C46.13556474 27.4648396 46 45.79941837 46 67.25 C25.87 67.25 5.74 67.25 -15 67.25 C-11.81487578 77.57054205 -11.81487578 77.57054205 -3.92578125 83.88671875 C0.52726724 85.68933697 4.80871901 85.74267578 9.5625 85.6875 C10.437854 85.68355225 11.31320801 85.67960449 12.21508789 85.67553711 C20.02695617 85.5046726 26.61018487 83.77409323 34 81.25 C35.65 80.92 37.3 80.59 39 80.25 C39 88.17 39 96.09 39 104.25 C22.90718001 112.29640999 4.63474716 115.59841936 -13.125 110.6875 C-26.89284893 105.60480966 -35.50673973 97.40541438 -41.71484375 84.27734375 C-48.99375594 67.13097004 -49.33078273 46.93089769 -42.55859375 29.55078125 C-36.51567296 16.5816357 -27.51137898 6.0862697 -13.7890625 1.078125 C-9.12175427 0.05805351 -4.76059512 -0.0426322 0 0 Z " fill="#FCFCFE" transform="translate(679,146.75)"/>
<path d="M0 0 C1.85044922 -0.0299707 1.85044922 -0.0299707 3.73828125 -0.06054688 C12.89919909 -0.05573041 21.47357491 1.29928746 29.75 5.4375 C29.75 14.6775 29.75 23.9175 29.75 33.4375 C25.36380885 32.70646814 22.2118474 31.99457325 18.1875 30.4375 C12.2014653 28.12799441 7.12133536 27.28440554 0.6875 27.25 C-0.52035156 27.23582031 -1.72820312 27.22164062 -2.97265625 27.20703125 C-6.03742498 27.42255134 -7.68995415 27.82230898 -10.25 29.4375 C-10.91923762 32.72493547 -10.91923762 32.72493547 -10.25 36.4375 C-5.78088002 41.28893407 1.20929386 42.52893382 7.296875 44.27734375 C18.67432672 48.09985864 28.19566432 53.71636818 33.76953125 64.44921875 C34.09308594 65.10535156 34.41664063 65.76148438 34.75 66.4375 C35.08 67.0975 35.41 67.7575 35.75 68.4375 C36.67657815 79.57989543 36.64671327 89.0650435 29.75 98.4375 C23.04947661 106.16887314 12.51702819 111.79414561 2.27709961 112.64233398 C-0.56868595 112.742918 -3.40248274 112.76593148 -6.25 112.75 C-7.26658691 112.74581055 -8.28317383 112.74162109 -9.33056641 112.73730469 C-21.47350359 112.55655471 -31.02683293 110.42557425 -42.25 105.4375 C-42.25 95.8675 -42.25 86.2975 -42.25 76.4375 C-36.86916223 78.23111259 -31.63893047 80.22540392 -26.37109375 82.31640625 C-20.73086055 84.34237237 -15.6198704 84.61990784 -9.6875 84.625 C-8.93275391 84.63724609 -8.17800781 84.64949219 -7.40039062 84.66210938 C-3.53766107 84.67231923 -0.51871916 84.63109668 2.75 82.4375 C2.75 79.7975 2.75 77.1575 2.75 74.4375 C-3.66792889 71.06719097 -10.04460327 68.07169695 -16.8125 65.5 C-29.04082076 60.73537553 -36.81772188 55.50352343 -42.625 43.625 C-44.26586159 35.25660587 -44.14312475 26.16214942 -40.25 18.4375 C-29.73611527 3.84200555 -17.40295837 -0.0987784 0 0 Z " fill="#FCFCFE" transform="translate(319.25,146.5625)"/>
<path d="M0 0 C0 8.58 0 17.16 0 26 C7.92 26 15.84 26 24 26 C24 34.91 24 43.82 24 53 C16.08 53 8.16 53 0 53 C0.05107428 59.86949068 0.11404758 66.73672541 0.20751953 73.60546875 C0.23570929 75.94100645 0.2569337 78.2766392 0.27099609 80.61230469 C0.29245246 83.97380159 0.33911906 87.33415807 0.390625 90.6953125 C0.39185364 91.73615997 0.39308228 92.77700745 0.39434814 93.84939575 C0.51485929 99.84214766 0.96919647 103.44954913 5 108 C7.41960129 109.20980064 8.98931011 109.13326398 11.6875 109.125 C12.51636719 109.12757813 13.34523438 109.13015625 14.19921875 109.1328125 C17.48420461 108.97703911 20.74437571 108.46508918 24 108 C24 116.25 24 124.5 24 133 C13.41733954 137.53542591 -0.27092779 139.50786068 -11.5 135.5 C-20.21379683 131.2171985 -25.86759006 125.08653749 -29.77151489 116.24133301 C-32.81287571 107.21807528 -31.74043684 96.95965188 -31.62109375 87.578125 C-31.61242697 85.22256236 -31.60628829 82.8669892 -31.60255432 80.51141357 C-31.58542331 74.34991793 -31.53141551 68.18927001 -31.47027588 62.02807617 C-31.4264444 56.97562104 -31.40908285 51.92323317 -31.39300442 46.87062454 C-31.3734628 40.85640915 -31.34289354 34.84227267 -31.30859375 28.828125 C-31.30216795 27.67676308 -31.29574215 26.52540115 -31.28912163 25.33914948 C-31.26825502 22.105248 -31.23996876 18.87151139 -31.20874023 15.63769531 C-31.20290924 14.67053589 -31.19707825 13.70337646 -31.19107056 12.70690918 C-31.18102493 11.83242126 -31.17097931 10.95793335 -31.16062927 10.0569458 C-31.15375815 9.29307178 -31.14688704 8.52919777 -31.1398077 7.74217606 C-31 6 -31 6 -30 5 C-27.31448219 4.48070098 -24.63581462 4.00503267 -21.9375 3.5625 C-17.49087218 2.82979498 -13.11114306 2.06406886 -8.75390625 0.90234375 C-5 0 -5 0 0 0 Z " fill="#FBFAFE" transform="translate(392,122)"/>
<path d="M0 0 C0.95003906 0.00644531 1.90007812 0.01289063 2.87890625 0.01953125 C5.4375 0.1875 5.4375 0.1875 8.4375 1.1875 C8.4375 10.7575 8.4375 20.3275 8.4375 30.1875 C3.8175 30.1875 -0.8025 30.1875 -5.5625 30.1875 C-11.13256663 32.07967318 -11.13256663 32.07967318 -14.5625 36.1875 C-15.8574516 41.78514265 -15.75202256 47.2423773 -15.66015625 52.9609375 C-15.66581252 54.61147835 -15.67542759 56.26200996 -15.68882751 57.9125061 C-15.71340213 62.2434142 -15.6843901 66.57235117 -15.64404297 70.90307617 C-15.61236247 75.32737939 -15.63159449 79.75143303 -15.64648438 84.17578125 C-15.66819219 92.84705348 -15.62855851 101.51645175 -15.5625 110.1875 C-25.7925 110.1875 -36.0225 110.1875 -46.5625 110.1875 C-46.5625 74.2175 -46.5625 38.2475 -46.5625 1.1875 C-37.6525 1.1875 -28.7425 1.1875 -19.5625 1.1875 C-18.5725 3.4975 -17.5825 5.8075 -16.5625 8.1875 C-16.10359375 7.77757812 -15.6446875 7.36765625 -15.171875 6.9453125 C-14.55828125 6.40648437 -13.9446875 5.86765625 -13.3125 5.3125 C-12.70921875 4.77882812 -12.1059375 4.24515625 -11.484375 3.6953125 C-7.63011305 0.67144032 -4.90935108 -0.07347328 0 0 Z " fill="#FCFCFE" transform="translate(471.5625,146.8125)"/>
<path d="M0 0 C10.23 0 20.46 0 31 0 C31 35.64 31 71.28 31 108 C20.77 108 10.54 108 0 108 C0 72.36 0 36.72 0 0 Z " fill="#FEFEFE" transform="translate(488,149)"/>
<path d="M0 0 C7.05458201 6.74411141 9.63865639 15.69597279 9.97265625 25.15234375 C9.78555356 35.49802218 7.58029734 44.39576787 0.37890625 52.0390625 C-3.6615273 55.41495106 -6.94921601 55.89907466 -12.0859375 55.7890625 C-16.82235544 55.25391916 -20.45888427 53.15631674 -24.40234375 50.52734375 C-24.79675293 48.4914856 -24.79675293 48.4914856 -24.82226562 45.95751953 C-24.83817749 45.00958527 -24.85408936 44.061651 -24.8704834 43.08499146 C-24.87068481 42.05792084 -24.87088623 41.03085022 -24.87109375 39.97265625 C-24.87870728 38.91956268 -24.8863208 37.86646912 -24.89416504 36.78146362 C-24.90498563 34.55045954 -24.90781123 32.31940471 -24.90332031 30.08837891 C-24.90234952 26.67264198 -24.94391886 23.25916137 -24.98828125 19.84375 C-24.99348909 17.67839011 -24.99617643 15.5130224 -24.99609375 13.34765625 C-25.01248901 12.32463409 -25.02888428 11.30161194 -25.04577637 10.24758911 C-24.97660018 3.15381059 -24.97660018 3.15381059 -21.9909668 -0.10327148 C-15.41921313 -3.57973723 -6.40379902 -4.25406034 0 0 Z " fill="#655DFE" transform="translate(586.40234375,176.47265625)"/>
<path d="M0 0 C0 8.25 0 16.5 0 25 C-1.81886719 25.34933594 -3.63773438 25.69867188 -5.51171875 26.05859375 C-7.90364773 26.51821932 -10.29557471 26.97785528 -12.6875 27.4375 C-14.48477539 27.78264648 -14.48477539 27.78264648 -16.31835938 28.13476562 C-18.05375977 28.46831055 -18.05375977 28.46831055 -19.82421875 28.80859375 C-21.41882935 29.11494751 -21.41882935 29.11494751 -23.0456543 29.42749023 C-25.69905609 29.94168139 -28.34972178 30.46994436 -31 31 C-31 22.42 -31 13.84 -31 5 C-27.37 4.175 -23.74 3.35 -20 2.5 C-18.87207031 2.23896484 -17.74414062 1.97792969 -16.58203125 1.70898438 C-15.66808594 1.50595703 -14.75414062 1.30292969 -13.8125 1.09375 C-12.89082031 0.88427734 -11.96914063 0.67480469 -11.01953125 0.45898438 C-8 0 -8 0 0 0 Z " fill="#FCFCFE" transform="translate(519,108)"/>
<path d="M0 0 C4.54462891 2.27231445 7.85816742 4.98971411 9.6875 9.8125 C10.12085336 12.84597355 10 15.93572897 10 19 C-0.23 19 -10.46 19 -21 19 C-21 10.99935138 -20.71834253 8.7172117 -16 3 C-11.59842042 -1.14266313 -5.70615543 -0.76249654 0 0 Z " fill="#655DFE" transform="translate(685,172)"/>
</svg>
